<?xml version="1.0" encoding="UTF-8"?>
<svg width="1024" height="1024" version="1.1" viewBox="0 0 270.93 270.93" xmlns="http://www.w3.org/2000/svg" xmlns:cc="http://creativecommons.org/ns#" xmlns:dc="http://purl.org/dc/elements/1.1/" xmlns:rdf="http://www.w3.org/1999/02/22-rdf-syntax-ns#">
  <title>Codactive Studio Logo</title>
  <metadata>
    <rdf:RDF>
      <cc:Work rdf:about="">
        <dc:format>image/svg+xml</dc:format>
        <dc:type rdf:resource="http://purl.org/dc/dcmitype/StillImage"/>
        <dc:title>Codactive Studio Logo</dc:title>
        <cc:license rdf:resource="http://creativecommons.org/licenses/by-nc-nd/4.0/"/>
        <dc:creator>
          <cc:Agent>
            <dc:title>Abhijit Parida &lt;abhijitparida.me@gmail.com&gt;</dc:title>
          </cc:Agent>
        </dc:creator>
      </cc:Work>
      <cc:License rdf:about="http://creativecommons.org/licenses/by-nc-nd/4.0/">
        <cc:permits rdf:resource="http://creativecommons.org/ns#Reproduction"/>
        <cc:permits rdf:resource="http://creativecommons.org/ns#Distribution"/>
        <cc:requires rdf:resource="http://creativecommons.org/ns#Notice"/>
        <cc:requires rdf:resource="http://creativecommons.org/ns#Attribution"/>
        <cc:prohibits rdf:resource="http://creativecommons.org/ns#CommercialUse"/>
      </cc:License>
    </rdf:RDF>
  </metadata>
  <g transform="translate(0 -26.067)">
    <path transform="matrix(.26458 0 0 .26458 0 26.067)" d="m512 0a512 512 0 0 0-512 512 512 512 0 0 0 512 512 512 512 0 0 0 457.79-283.1l-281.03-140.51a196 196 0 0 1-172.77 103.62 196 196 0 0 1-196-196 196 196 0 0 1 196-196 196 196 0 0 1 175.98 110.01l277.44-138.72a512 512 0 0 0-457.42-283.29z" fill="#ef3e36"/>
    <g fill="#071013" stroke-width=".26458">
      <path d="m135.43 153.98c2.3611-0.58173 4.996 0.27376 6.6044 2.0874 0.8897-0.85549 1.8136-1.711 2.6691-2.5665l1.9505-1.8821c-1.8478-1.4714-4.0379-2.4638-6.3306-2.9086-2.2243-0.44486-4.5512-0.41064-6.7412 0.20531-1.7794 0.47908-3.4904 1.3003-4.6881 2.6691-1.1292 1.1977-1.7794 2.8402-1.8136 4.4828 0 1.6425 0.58173 3.2851 1.711 4.4828 1.0608 1.1977 2.5322 1.9163 4.0379 2.4296 1.5056 0.51329 3.0798 0.82126 4.5854 1.3346 0.95815 0.30798 1.9505 0.71861 2.4296 1.7794 0.0342 0.0684 0.0684 0.1711 0.10266 0.30798 0.23954 1.6083-1.403 2.2243-2.7718 2.2585-2.498 0.0684-5.0303-0.95814-6.8097-2.7376l-4.6881 4.3459c2.4638 2.3269 5.8173 3.5588 9.205 3.7984 2.0532 0.13687 4.209-0.0684 6.1253-0.88971 1.9163-0.82127 3.6273-2.2585 4.5512-4.1063 0.95815-1.8821 1.0266-4.1748 0.0684-6.0226-0.51329-1.0266-1.3346-1.8478-2.2585-2.498-0.65017-0.44486-1.3688-0.82127-2.0874-1.1292-1.7794-0.75282-3.6957-1.1635-5.5093-1.7452-0.78705-0.27375-1.5741-0.54751-2.019-1.3346l-0.10266-0.23953c-0.34219-1.1977 0.78705-1.8821 1.7794-2.1216z"/>
      <path d="m169.35 149.29v5.8173h-7.5283v18.102h-5.8173v-18.102h-7.5283v-5.8173z"/>
      <path d="m187.48 162.91c0 2.6007-2.1216 4.7223-4.7565 4.7223-2.6007 0-4.7565-2.1216-4.7565-4.7223v-13.654h-5.8173v13.654c0 5.8173 4.7565 10.574 10.574 10.574 5.8515 0 10.608-4.7565 10.608-10.574v-13.654h-5.8515z"/>
      <path d="m207.28 149.29h-10.129v23.851h10.129c6.5701 0 11.908-5.3382 11.908-11.908 0-6.5701-5.3382-11.943-11.908-11.943zm0 18.034h-4.3116v-12.182h4.3116c3.3535 0 6.0911 2.7376 6.0911 6.0911 0 3.3535-2.7376 6.0911-6.0911 6.0911z"/>
      <path d="m222.72 173.14h5.8173v-23.851h-5.8173z"/>
      <path d="m244.32 148.95c-6.7412 0-12.251 5.5093-12.251 12.251 0 6.7754 5.5093 12.251 12.251 12.251 6.7754 0 12.251-5.4751 12.251-12.251 0-6.7412-5.4751-12.251-12.251-12.251zm0 18.684c-3.5246 0-6.4332-2.8744-6.4332-6.4333 0-3.5588 2.9086-6.4332 6.4332-6.4332 3.5588 0 6.4333 2.8744 6.4333 6.4332 0 3.5588-2.8744 6.4333-6.4333 6.4333z"/>
    </g>
  </g>
</svg>
